<svg width="1400" height="900" viewBox="0 0 1400 900" fill="none" xmlns="http://www.w3.org/2000/svg">
  <defs>
    <linearGradient id="aurora-a" x1="0" y1="0" x2="1" y2="1">
      <stop offset="0%" stop-color="#22c5ff" stop-opacity="0.45" />
      <stop offset="50%" stop-color="#63f0a0" stop-opacity="0.35" />
      <stop offset="100%" stop-color="#ff5bb0" stop-opacity="0.25" />
    </linearGradient>
    <linearGradient id="aurora-b" x1="1" y1="0" x2="0" y2="1">
      <stop offset="0%" stop-color="#2dd78f" stop-opacity="0.35" />
      <stop offset="100%" stop-color="#22c5ff" stop-opacity="0.2" />
    </linearGradient>
  </defs>
  <path
    d="M0 120 C220 40, 420 60, 620 120 C800 172, 980 210, 1200 180 C1280 168, 1360 150, 1400 140 L1400 0 L0 0 Z"
    fill="url(#aurora-a)"
  />
  <path
    d="M0 260 C240 200, 420 210, 620 260 C820 320, 980 360, 1220 330 C1300 320, 1360 300, 1400 290 L1400 0 L0 0 Z"
    fill="url(#aurora-b)"
    opacity="0.7"
  />
  <path
    d="M0 640 C200 560, 420 540, 660 600 C900 660, 1120 720, 1400 760 L1400 900 L0 900 Z"
    fill="#22c5ff"
    opacity="0.08"
  />
</svg>
