<svg width="1400" height="240" viewBox="0 0 1400 240" fill="none" xmlns="http://www.w3.org/2000/svg">
  <path
    d="M0 200 L60 200 L60 140 L120 140 L120 170 L180 170 L180 120 L240 120 L240 160 L300 160 L300 110 L360 110 L360 180 L420 180 L420 130 L480 130 L480 170 L540 170 L540 120 L600 120 L600 190 L660 190 L660 150 L720 150 L720 110 L780 110 L780 175 L840 175 L840 125 L900 125 L900 170 L960 170 L960 120 L1020 120 L1020 180 L1080 180 L1080 130 L1140 130 L1140 170 L1200 170 L1200 140 L1260 140 L1260 190 L1320 190 L1320 160 L1380 160 L1380 200 L1400 200 L1400 240 L0 240 Z"
    fill="#0b0b14"
  />
  <path
    d="M0 200 L60 200 L60 140 L120 140 L120 170 L180 170 L180 120 L240 120 L240 160 L300 160 L300 110 L360 110 L360 180 L420 180 L420 130 L480 130 L480 170 L540 170 L540 120 L600 120 L600 190 L660 190 L660 150 L720 150 L720 110 L780 110 L780 175 L840 175 L840 125 L900 125 L900 170 L960 170 L960 120 L1020 120 L1020 180 L1080 180 L1080 130 L1140 130 L1140 170 L1200 170 L1200 140 L1260 140 L1260 190 L1320 190 L1320 160 L1380 160 L1380 200"
    stroke="#22c5ff"
    stroke-width="2"
    stroke-linecap="round"
    stroke-linejoin="round"
    opacity="0.5"
  />
</svg>
